<?xml version="1.0" encoding="UTF-8"?>
<svg width="21px" height="21px" viewBox="0 0 21 21" version="1.1" xmlns="http://www.w3.org/2000/svg" xmlns:xlink="http://www.w3.org/1999/xlink">
    <!-- Generator: sketchtool 54.1 (76490) - https://sketchapp.com -->
    <title>337C0BDA-EC5C-40FE-B7D2-77223B2500A9</title>
    <desc>Created with sketchtool.</desc>
    <g id="Page-1" stroke="none" stroke-width="1" fill="none" fill-rule="evenodd">
        <g id="Drumster-Webb-Final---1440px" transform="translate(-1303.000000, -4174.000000)" fill="#FFFFFF" fill-rule="nonzero">
            <g id="Footer" transform="translate(0.000000, 4136.000000)">
                <g id="Footer-2">
                    <g id="Footer">
                        <g id="app-store" transform="translate(1303.000000, 38.000000)">
                            <path d="M16.6933594,0 L4.30664062,0 C1.93195898,0 0,1.93195898 0,4.30664062 L0,16.6933594 C0,19.068041 1.93195898,21 4.30664062,21 L16.6933594,21 C19.068041,21 21,19.068041 21,16.6933594 L21,4.30664062 C21,1.93195898 19.068041,0 16.6933594,0 Z M19.7695313,16.6933594 C19.7695313,18.3895605 18.3895605,19.7695313 16.6933594,19.7695313 L4.30664063,19.7695313 C2.61043945,19.7695313 1.23046875,18.3895605 1.23046875,16.6933594 L1.23046875,4.30664063 C1.23046875,2.61043945 2.61043945,1.23046875 4.30664063,1.23046875 L16.6933594,1.23046875 C18.3895605,1.23046875 19.7695313,2.61043945 19.7695313,4.30664063 L19.7695313,16.6933594 Z" id="Shape"></path>
                            <path d="M12.3934355,5.05946001 C12.3230265,4.7900519 12.1545989,4.56483508 11.9191015,4.42541117 C11.4330394,4.13754129 10.8091729,4.30891826 10.528433,4.80763653 L10.3717333,5.08598314 L10.2150337,4.80759476 C9.9343345,4.3090018 9.31050871,4.13754129 8.82436521,4.4253694 L8.82432448,4.4253694 C8.33818098,4.71328104 8.17105643,5.35313573 8.45171492,5.85181223 L9.19616033,7.1743763 L6.44927444,12.0544222 L4.44663036,12.0544222 C3.88527266,12.0544222 3.42857143,12.5228582 3.42857143,13.0986397 C3.42857143,13.6744212 3.88527266,14.1428571 4.44663036,14.1428571 L12.1781771,14.1428571 L11.0026041,12.0544222 L8.80037974,12.0544222 L12.291711,5.85185399 C12.427683,5.61030561 12.4638444,5.32886812 12.3934355,5.05946001 Z" id="Path"></path>
                            <path d="M16.5603417,12.0421422 L14.5714124,12.0421422 L12.310339,8.14285714 L11.1428571,10.1562435 L14.6535127,16.2104157 C14.7885534,16.4433242 15.0065438,16.6099118 15.2674851,16.6795347 C15.3546003,16.7027691 15.4429693,16.7142857 15.5308125,16.7142857 C15.7060137,16.7142857 15.87895,16.6685416 16.0347787,16.5789459 C16.5175929,16.3013804 16.6835729,15.6844789 16.4047961,15.203803 L15.7388942,14.0555285 L16.5603417,14.0555285 C17.117855,14.0555285 17.5714286,13.603926 17.5714286,13.0488354 C17.5714286,12.4937447 17.117855,12.0421422 16.5603417,12.0421422 Z" id="Path"></path>
                            <path d="M5.03616576,15 L4.844583,15.3172975 C4.57604765,15.7620952 4.73599217,16.3329028 5.20113654,16.5896917 C5.35414559,16.6741578 5.52137625,16.7143229 5.68654185,16.7142857 C6.02341891,16.7142857 6.35152921,16.5472164 6.53177362,16.2487347 L7.28571429,15 L5.03616576,15 Z" id="Path"></path>
                        </g>
                    </g>
                </g>
            </g>
        </g>
    </g>
</svg>