<?xml version="1.0" encoding="UTF-8"?>
<svg width="120px" height="29px" viewBox="0 0 120 29" version="1.1" xmlns="http://www.w3.org/2000/svg" xmlns:xlink="http://www.w3.org/1999/xlink">
    <!-- Generator: sketchtool 54.1 (76490) - https://sketchapp.com -->
    <title>CA2E7037-74BE-4AE0-8797-2230FEDCC040</title>
    <desc>Created with sketchtool.</desc>
    <defs>
        <polygon id="path-1" points="0 0.15715 28.98405 0.15715 28.98405 27.999965 0 27.999965"></polygon>
        <polygon id="path-3" points="0.149057752 0.249733333 88.9296279 0.249733333 88.9296279 15.9004 0.149057752 15.9004"></polygon>
    </defs>
    <g id="Page-1" stroke="none" stroke-width="1" fill="none" fill-rule="evenodd">
        <g id="Drumster-Webb-Final---1440px" transform="translate(-73.000000, -4171.000000)">
            <g id="Footer" transform="translate(0.000000, 4136.000000)">
                <g id="Footer-2">
                    <g id="Footer">
                        <g id="Footer-logo" transform="translate(73.000000, 35.000000)">
                            <g id="Group-3" transform="translate(0.000000, 0.285714)">
                                <mask id="mask-2" fill="white">
                                    <use xlink:href="#path-1"></use>
                                </mask>
                                <g id="Clip-2"></g>
                                <path d="M13.3313,9.594865 C10.8928833,9.594865 8.90845476,11.606315 8.90845476,14.078715 C8.90845476,15.063265 9.21709762,15.997765 9.80124048,16.780715 C10.5479905,17.781715 10.734419,18.030915 13.2981571,21.133665 L16.8758595,16.761815 C17.450681,15.982365 17.7541452,15.055215 17.7541452,14.078715 C17.7541452,11.606315 15.7700619,9.594865 13.3313,9.594865 L13.3313,9.594865 Z M2.24397857,25.724965 L8.99510952,25.724965 C8.98440714,25.724965 9.56060952,25.701865 9.88996667,25.298665 L11.8419429,22.913765 C8.98993095,19.464165 8.8117881,19.225465 8.01152619,18.153065 C7.13013333,16.971465 6.66440714,15.562715 6.66440714,14.078715 C6.66440714,10.351915 9.65555,7.319865 13.3313,7.319865 C17.0073952,7.319865 19.9981929,10.351915 19.9981929,14.078715 C19.9981929,15.562365 19.5324667,16.971115 18.6517643,18.152715 L18.6200024,18.193315 L14.7640381,22.905365 C15.3388595,23.600115 15.9948119,24.392165 16.7450143,25.297965 L16.744669,25.297965 C16.7453595,25.297965 17.1182167,25.708165 17.6177762,25.724615 C18.60205,25.565015 26.7400024,22.080765 26.7400024,14.078715 C26.7400024,7.656915 21.5866333,2.432115 15.2522048,2.432115 L2.24397857,2.432115 L2.24397857,25.724965 Z M17.6485024,27.999965 C16.0976929,27.999965 15.1313714,26.887665 15.026419,26.761315 C14.3880738,25.990265 13.818431,25.302165 13.3078238,24.685115 L11.6171929,26.751515 C10.6242881,27.964965 9.15909762,27.999965 8.99510952,27.999965 L2.1953,27.999965 C0.769466667,27.999965 -6.9047619e-05,26.853365 -6.9047619e-05,25.774665 L-6.9047619e-05,2.383115 C-6.9047619e-05,0.937265 1.13127619,0.157115 2.1953,0.157115 L15.2522048,0.157115 C22.8239667,0.157115 28.98405,6.402165 28.98405,14.078715 C28.98405,23.811515 19.2013833,27.999965 17.6485024,27.999965 L17.6485024,27.999965 Z" id="Fill-1" fill="#FFFFFF" mask="url(#mask-2)"></path>
                            </g>
                            <path d="M13.5,16.2857143 C14.60442,16.2857143 15.5,15.3904339 15.5,14.2855213 C15.5,13.1809947 14.60442,12.2857143 13.5,12.2857143 C12.39558,12.2857143 11.5,13.1809947 11.5,14.2855213 C11.5,15.3904339 12.39558,16.2857143 13.5,16.2857143" id="Fill-4" fill="#FD6585"></path>
                            <g id="Group-8" transform="translate(31.000000, 6.285714)">
                                <mask id="mask-4" fill="white">
                                    <use xlink:href="#path-3"></use>
                                </mask>
                                <g id="Clip-7"></g>
                                <path d="M5.58944147,15.9004 C7.07691434,15.9004 8.28358876,15.3977333 9.15737558,14.5837333 C9.38642984,14.3624 9.56305,14.4830667 9.56305,14.8450667 L9.56305,15.2770667 C9.56305,15.5487333 9.70827868,15.6894 9.98976705,15.6894 L11.4565422,15.6894 C11.7373407,15.6894 11.8829143,15.5487333 11.8829143,15.2770667 L11.8829143,0.662066667 C11.8829143,0.390733333 11.7373407,0.249733333 11.4565422,0.249733333 L10.0001159,0.249733333 C9.71931744,0.249733333 9.57339884,0.390733333 9.57339884,0.662066667 L9.56305,5.88873333 C9.56305,6.25073333 9.35503837,6.33106667 9.07423992,6.07973333 C8.2004531,5.29573333 7.02482519,4.8134 5.58944147,4.8134 C2.65589109,4.8134 0.149057752,7.22573333 0.149057752,10.3517333 C0.149057752,13.4880667 2.65589109,15.9004 5.58944147,15.9004 L5.58944147,15.9004 Z M6.09929419,13.9000667 C4.08092597,13.9000667 2.45822829,12.3824 2.45822829,10.3517333 C2.45822829,8.3314 4.08092597,6.82373333 6.09929419,6.82373333 C8.12766628,6.82373333 9.71931744,8.3314 9.71931744,10.3517333 C9.71931744,12.3824 8.12766628,13.9000667 6.09929419,13.9000667 L6.09929419,13.9000667 Z M14.912364,15.6894 L16.3791391,15.6894 C16.6495888,15.6894 16.8055112,15.5487333 16.8055112,15.2770667 L16.8055112,10.2310667 C16.8055112,8.0194 18.116019,7.18506667 20.1343872,7.09506667 C20.4151857,7.08506667 20.5607593,6.91406667 20.5607593,6.67306667 L20.5607593,5.36573333 C20.5607593,5.09473333 20.4048368,4.94406667 20.1136895,4.97406667 C18.8652748,5.10473333 17.866612,5.6174 17.2108407,6.32106667 C16.940736,6.60206667 16.7434182,6.53206667 16.7434182,6.1604 L16.7434182,5.45673333 C16.7434182,5.1954 16.5871508,5.0444 16.3167012,5.0444 L14.912364,5.0444 C14.6419143,5.0444 14.4859919,5.1954 14.4859919,5.45673333 L14.4859919,15.2770667 C14.4859919,15.5487333 14.6419143,15.6894 14.912364,15.6894 L14.912364,15.6894 Z M26.3950888,15.8904 C29.2872438,15.8904 31.1283019,14.4127333 31.1283019,11.9097333 L31.1283019,5.45673333 C31.1283019,5.1954 30.9827283,5.0444 30.7019298,5.0444 L29.2665461,5.0444 C28.9960965,5.0444 28.8398291,5.1954 28.8398291,5.45673333 L28.8398291,11.7994 C28.8398291,13.2367333 27.7997709,13.8900667 26.3950888,13.8900667 C25.0011004,13.8900667 23.9506934,13.2367333 23.9506934,11.7994 L23.9506934,5.45673333 C23.9506934,5.1954 23.7947709,5.0444 23.5243213,5.0444 L22.0885926,5.0444 C21.818143,5.0444 21.6622205,5.1954 21.6622205,5.45673333 L21.6622205,11.9097333 C21.6622205,14.4127333 23.5036236,15.8904 26.3950888,15.8904 L26.3950888,15.8904 Z M34.002519,15.6894 L35.4692942,15.6894 C35.7397438,15.6894 35.8956663,15.5487333 35.8956663,15.2770667 L35.8956663,9.19573333 C35.8956663,7.64806667 36.7587593,6.81373333 38.0803058,6.81373333 C39.2348911,6.81373333 40.1607671,7.45706667 40.1607671,9.1154 L40.1607671,15.2770667 C40.1607671,15.5487333 40.3063407,15.6894 40.5871391,15.6894 L42.0539143,15.6894 C42.3347128,15.6894 42.4806314,15.5487333 42.4806314,15.2770667 L42.4806314,9.19573333 C42.4806314,7.64806667 43.3647671,6.81373333 44.6752748,6.81373333 C45.8195112,6.81373333 46.755736,7.45706667 46.755736,9.1154 L46.755736,15.2770667 C46.755736,15.5487333 46.9016547,15.6894 47.1824531,15.6894 L48.6385345,15.6894 C48.9196779,15.6894 49.0652516,15.5487333 49.0652516,15.2770667 L49.0652516,8.41173333 C49.0652516,6.27073333 47.5463872,4.8434 45.3203523,4.8434 C44.0822864,4.8434 43.0732748,5.31606667 42.3557554,6.15006667 C42.1684415,6.3914 42.012519,6.3714 41.8355539,6.12006667 C41.2218678,5.2254 40.2128562,4.8434 39.0165306,4.8434 C37.9136895,4.8434 36.9985074,5.2454 36.3534298,5.94906667 C36.0933291,6.23073333 35.8956663,6.1804 35.8956663,5.8084 L35.8956663,5.45673333 C35.8956663,5.1954 35.7397438,5.0444 35.4692942,5.0444 L34.002519,5.0444 C33.7320694,5.0444 33.5761469,5.1954 33.5761469,5.45673333 L33.5761469,15.2770667 C33.5761469,15.5487333 33.7320694,15.6894 34.002519,15.6894 L34.002519,15.6894 Z M54.9113097,15.8904 C57.3143097,15.8904 59.0411857,14.7244 59.0411857,12.5430667 C59.0411857,10.4217333 57.3663988,9.79906667 55.8371857,9.34673333 C54.5056353,8.95473333 53.2575655,8.6934 53.2575655,7.77873333 C53.2575655,7.03473333 53.9543872,6.62273333 54.9427012,6.62273333 C55.6395229,6.62273333 56.492612,6.83373333 57.2725694,7.28606667 C57.5119725,7.42673333 57.7096353,7.38673333 57.8655578,7.1754 L58.5106353,6.26073333 C58.6769066,6.04973333 58.6355112,5.84873333 58.3961081,5.70806667 C57.3974453,5.14506667 56.2325112,4.8434 55.0565384,4.8434 C52.9136391,4.8434 51.0418795,5.88873333 51.0418795,7.98973333 C51.0418795,10.0804 52.8411973,10.6234 54.4121508,11.0957333 C55.6709143,11.4677333 56.7630616,11.7590667 56.7630616,12.7137333 C56.7630616,13.5684 56.0244996,14.0407333 54.9216585,14.0407333 C53.8916043,14.0407333 52.7894531,13.6087333 51.9674105,13.0557333 C51.7283523,12.8950667 51.5199957,12.9150667 51.3744221,13.1460667 L50.7400384,14.1614 C50.5944647,14.3827333 50.6255112,14.5837333 50.8649143,14.7344 C51.873926,15.3677333 53.2989609,15.8904 54.9113097,15.8904 L54.9113097,15.8904 Z M64.7861702,15.6894 L66.0238911,15.6894 C66.3046895,15.6894 66.4506081,15.5487333 66.4506081,15.2770667 L66.4506081,14.3020667 C66.4506081,14.0307333 66.3046895,13.8900667 66.0238911,13.8900667 L65.2542826,13.8900667 C64.369457,13.8900667 63.7561159,13.3474 63.7561159,12.3120667 L63.7561159,7.1754 C63.7561159,6.91406667 63.9016895,6.7634 64.182488,6.7634 L66.0445888,6.7634 C66.3150384,6.7634 66.4713058,6.62273333 66.4713058,6.3514 L66.4713058,5.45673333 C66.4713058,5.1954 66.3150384,5.0444 66.0445888,5.0444 L64.182488,5.0444 C63.9016895,5.0444 63.7561159,4.90373333 63.7561159,4.6324 L63.7561159,2.5114 C63.7561159,2.25006667 63.6105422,2.0994 63.3297438,2.0994 L61.8629686,2.0994 C61.5818252,2.0994 61.4365965,2.25006667 61.4365965,2.5114 L61.4365965,4.6324 C61.4365965,4.90373333 61.2910229,5.0444 61.0098795,5.0444 L60.0633058,5.0444 C59.7928562,5.0444 59.6369337,5.1954 59.6369337,5.45673333 L59.6369337,6.3514 C59.6369337,6.62273333 59.7928562,6.7634 60.0633058,6.7634 L61.0098795,6.7634 C61.2910229,6.7634 61.4365965,6.91406667 61.4365965,7.1754 L61.4365965,12.5734 C61.4365965,14.5937333 62.7681469,15.6894 64.7861702,15.6894 L64.7861702,15.6894 Z M72.7030306,15.8904 C74.7624492,15.8904 76.4789764,14.9757333 77.4776391,13.4980667 C77.612864,13.2767333 77.5297283,13.0860667 77.2592787,12.9654 L76.1667864,12.5230667 C75.9277283,12.4124 75.7404143,12.4827333 75.5737981,12.6937333 C74.897674,13.5484 73.8472671,14.0207333 72.6919919,14.0207333 C70.9137167,14.0207333 69.41555,12.8244 69.1454453,11.1157333 C69.0830074,10.8444 69.2596275,10.6834 69.540426,10.6834 L77.8936624,10.6834 C78.1534182,10.6834 78.3200345,10.5227333 78.3407322,10.2714 L78.3407322,10.1407333 C78.2682903,7.08506667 75.8028523,4.8334 72.6509415,4.8334 C69.353457,4.8334 66.8562826,7.29606667 66.8562826,10.3617333 C66.8562826,13.4377333 69.3117167,15.8904 72.7030306,15.8904 L72.7030306,15.8904 Z M69.7380888,9.15573333 C69.4365926,9.15573333 69.2596275,8.96473333 69.3845035,8.6834 C69.9254027,7.42673333 71.1634686,6.61273333 72.6612903,6.61273333 C74.1587671,6.61273333 75.3761353,7.43673333 75.885988,8.6834 C76.010864,8.97473333 75.8338988,9.15573333 75.5427516,9.15573333 L69.7380888,9.15573333 Z M80.4242981,15.6894 L81.8907283,15.6894 C82.1615229,15.6894 82.3174453,15.5487333 82.3174453,15.2770667 L82.3174453,10.2310667 C82.3174453,8.0194 83.6282981,7.18506667 85.6463213,7.09506667 C85.9271198,7.08506667 86.0726934,6.91406667 86.0726934,6.67306667 L86.0726934,5.36573333 C86.0726934,5.09473333 85.9167709,4.94406667 85.6256236,4.97406667 C84.3772089,5.10473333 83.3785461,5.6174 82.7231198,6.32106667 C82.4526702,6.60206667 82.2550074,6.53206667 82.2550074,6.1604 L82.2550074,5.45673333 C82.2550074,5.1954 82.0990849,5.0444 81.8286353,5.0444 L80.4242981,5.0444 C80.1538484,5.0444 79.997926,5.1954 79.997926,5.45673333 L79.997926,15.2770667 C79.997926,15.5487333 80.1538484,15.6894 80.4242981,15.6894 L80.4242981,15.6894 Z M87.473236,15.8904 C88.2638872,15.8904 88.9296624,15.2670667 88.9296624,14.4930667 C88.9296624,13.7394 88.2638872,13.0860667 87.473236,13.0860667 C86.6929337,13.0860667 86.0271585,13.7394 86.0271585,14.4930667 C86.0271585,15.2670667 86.6929337,15.8904 87.473236,15.8904 L87.473236,15.8904 Z" id="Fill-6" fill="#FFFFFF" mask="url(#mask-4)"></path>
                            </g>
                        </g>
                    </g>
                </g>
            </g>
        </g>
    </g>
</svg>