<?xml version="1.0" encoding="UTF-8"?>
<svg width="19px" height="20px" viewBox="0 0 19 20" version="1.1" xmlns="http://www.w3.org/2000/svg" xmlns:xlink="http://www.w3.org/1999/xlink">
    <!-- Generator: sketchtool 54.1 (76490) - https://sketchapp.com -->
    <title>4C8D0307-B272-4C84-8854-A398ED6ED341</title>
    <desc>Created with sketchtool.</desc>
    <g id="Page-1" stroke="none" stroke-width="1" fill="none" fill-rule="evenodd">
        <g id="Drumster-Webb-Final---1440px" transform="translate(-1348.000000, -4174.000000)" fill="#FFFFFF" fill-rule="nonzero">
            <g id="Footer" transform="translate(0.000000, 4136.000000)">
                <g id="Footer-2">
                    <g id="Footer">
                        <g id="play-store" transform="translate(1348.000000, 38.000000)">
                            <path d="M17.8340796,8.0911491 L3.4636923,0.289785505 C3.11448712,0.100180449 2.71717381,0 2.31489993,0 C1.90738469,0 1.50567239,0.102669405 1.15319136,0.296896806 C0.441864818,0.688818368 0,1.41746002 0,2.19854752 L0,17.8013636 C0,18.5823622 0.441864818,19.3110038 1.15300417,19.7029254 C1.50548519,19.8973306 1.9072911,20 2.31480633,20 C2.71689302,20 3.11420633,19.8997307 3.4635987,19.7101256 L17.8337988,11.9086731 C18.5531746,11.5180849 19,10.7867765 19,9.99991111 C19,9.21304568 18.5533618,8.48173729 17.8340796,8.0911491 Z M11.6068837,6.24647768 L9.63379491,8.85668062 L4.91423688,2.61313635 L11.6068837,6.24647768 Z M2.22429939,18.6589865 C2.09597982,18.6471639 1.97009374,18.6116074 1.85768543,18.5496502 C1.57783459,18.3954239 1.40393397,18.1086607 1.40393397,17.8013636 L1.40393397,2.19845863 C1.40393397,1.89116154 1.57783459,1.60439834 1.85777903,1.450172 C1.96981296,1.38839258 2.09466948,1.3515916 2.22298905,1.33905793 L8.76962675,9.99991111 L2.22429939,18.6589865 Z M4.91423688,17.3867748 L9.63379491,11.1431416 L11.6068837,13.7533445 L4.91423688,17.3867748 Z M17.1372604,10.7509534 L12.8322373,13.0880823 L10.4978695,9.99991111 L12.8322373,6.91173987 L17.1372604,9.24886886 C17.4202935,9.40256185 17.5961596,9.69030285 17.5961596,9.99991111 C17.5961596,10.3095194 17.4203871,10.5973493 17.1372604,10.7509534 Z" id="Shape"></path>
                        </g>
                    </g>
                </g>
            </g>
        </g>
    </g>
</svg>