<?xml version="1.0" encoding="UTF-8"?>
<svg width="19px" height="21px" viewBox="0 0 19 21" version="1.1" xmlns="http://www.w3.org/2000/svg" xmlns:xlink="http://www.w3.org/1999/xlink">
    <!-- Generator: sketchtool 54.1 (76490) - https://sketchapp.com -->
    <title>61942F65-C51A-4010-8C5B-D0DC73717619</title>
    <desc>Created with sketchtool.</desc>
    <defs>
        <polygon id="path-1" points="-0.125 -0.064516129 4.875 -0.064516129 4.875 5.93548387 -0.125 5.93548387"></polygon>
    </defs>
    <g id="Web-Responsive-Bit-Grid" stroke="none" stroke-width="1" fill="none" fill-rule="evenodd">
        <g id="Drumster-Webb-Final---1440px" transform="translate(-242.000000, -563.000000)">
            <g id="Group-18" transform="translate(222.000000, 273.000000)">
                <g id="Group-13" transform="translate(1.000000, 277.000000)">
                    <g id="Group">
                        <g id="ic_apple" transform="translate(19.125000, 13.000000)">
                            <path d="M18,14.8479267 C17.5080094,15.8675038 17.2725236,16.3224997 16.6392772,17.2234981 C15.755226,18.481565 14.5097523,20.0482364 12.9664479,20.0613933 C11.5946812,20.0732178 11.2425213,19.226679 9.38125778,19.2363385 C7.52017235,19.245665 7.13131807,20.0762156 5.7593732,20.0643911 C4.21606882,20.0510676 3.03561197,18.6364501 2.15173889,17.3785498 C-0.319792544,13.860992 -0.577900583,9.73288704 0.946165934,7.53834801 C2.02954281,5.97867145 3.73797221,5.06584847 5.34486843,5.06584847 C6.98079958,5.06584847 8.00931291,5.9047263 9.36184179,5.9047263 C10.6737574,5.9047263 11.4735539,5.06451613 13.3649211,5.06451613 C14.7944015,5.06451613 16.3092053,5.79214313 17.3886634,7.05104277 C13.8522804,8.8626991 14.4265663,13.5855296 18,14.8479267" id="Fill-1" fill="#FEFEFE"></path>
                            <g id="Group-5" transform="translate(8.000000, 0.064516)">
                                <mask id="mask-2" fill="white">
                                    <use xlink:href="#path-1"></use>
                                </mask>
                                <g id="Clip-4"></g>
                                <path d="M3.65429722,3.98312583 C4.44590493,2.93347806 5.04797855,1.45069952 4.8299014,-0.064516129 C3.53601809,0.0274950071 2.02200418,0.877643984 1.1379909,1.98559375 C0.33591056,2.99178004 -0.326329352,4.4838869 -0.0684151411,5.93380432 C1.34415799,5.97896186 2.8056034,5.10803618 3.65429722,3.98312583" id="Fill-3" fill="#FEFEFE" mask="url(#mask-2)"></path>
                            </g>
                        </g>
                    </g>
                </g>
            </g>
        </g>
    </g>
</svg>