<?xml version="1.0" encoding="UTF-8"?>
<svg width="179px" height="96px" viewBox="0 0 179 96" version="1.1" xmlns="http://www.w3.org/2000/svg" xmlns:xlink="http://www.w3.org/1999/xlink">
    <!-- Generator: sketchtool 54.1 (76490) - https://sketchapp.com -->
    <title>973ADB74-BB53-486C-81D0-5E9E71D1CFA9</title>
    <desc>Created with sketchtool.</desc>
    <defs>
        <polygon id="path-1" points="0 0 116 0 116 21 0 21"></polygon>
        <linearGradient x1="74.6293527%" y1="45.3120437%" x2="0%" y2="45.3120437%" id="linearGradient-3">
            <stop stop-color="#FFFFFF" stop-opacity="0" offset="0%"></stop>
            <stop stop-color="#B8DBD5" offset="100%"></stop>
        </linearGradient>
        <polygon id="path-4" points="0 0 46 0 46 44 0 44"></polygon>
        <polygon id="path-6" points="0 0.0775874502 49.9725 0.0775874502 49.9725 46.999941 0 46.999941"></polygon>
    </defs>
    <g id="Web-Responsive-Bit-Grid" stroke="none" stroke-width="1" fill="none" fill-rule="evenodd">
        <g id="Drumster-Webb-Final---1440px" transform="translate(-35.000000, -26.000000)">
            <g id="Logo-Start" transform="translate(35.000000, 26.000000)">
                <g id="Group-3" transform="translate(63.000000, 13.000000)">
                    <mask id="mask-2" fill="white">
                        <use xlink:href="#path-1"></use>
                    </mask>
                    <g id="Clip-2"></g>
                    <path d="M7.10836014,21 C9.05187983,21 10.6285106,20.3255239 11.7701932,19.2333021 C12.0694736,18.9363179 12.300244,19.098228 12.300244,19.5839581 L12.300244,20.1636139 C12.300244,20.5281351 12.4899986,20.7168811 12.857789,20.7168811 L14.7742652,20.7168811 C15.1411542,20.7168811 15.3313595,20.5281351 15.3313595,20.1636139 L15.3313595,0.553267166 C15.3313595,0.189193219 15.1411542,0 14.7742652,0 L12.8713107,0 C12.5044218,0 12.3137657,0.189193219 12.3137657,0.553267166 L12.300244,7.56638695 C12.300244,8.05211706 12.0284577,8.15990799 11.6615688,7.82266996 C10.5198862,6.77070199 8.98382058,6.12350912 7.10836014,6.12350912 C3.27540759,6.12350912 0,9.36036804 0,13.5548219 C0,17.7631411 3.27540759,21 7.10836014,21 L7.10836014,21 Z M7.77452946,18.315961 C5.13734633,18.315961 3.01714303,16.2795621 3.01714303,13.5548219 C3.01714303,10.843947 5.13734633,8.82096609 7.77452946,8.82096609 C10.4247836,8.82096609 12.5044218,10.843947 12.5044218,13.5548219 C12.5044218,16.2795621 10.4247836,18.315961 7.77452946,18.315961 L7.77452946,18.315961 Z M19.2896132,20.7168811 L21.2060894,20.7168811 C21.5594566,20.7168811 21.7631837,20.5281351 21.7631837,20.1636139 L21.7631837,13.3929119 C21.7631837,10.4253067 23.4754822,9.30580167 26.1126653,9.18504004 C26.4795543,9.17162208 26.6697596,8.94217499 26.6697596,8.61880218 L26.6697596,6.8646277 C26.6697596,6.50100102 26.4660325,6.29883711 26.0856219,6.33909099 C24.4544536,6.51441898 23.1496091,7.202313 22.2927838,8.14649003 C21.9398673,8.52353467 21.6820534,8.42960896 21.6820534,7.93090816 L21.6820534,6.98673113 C21.6820534,6.63607514 21.4778757,6.43346396 21.1245085,6.43346396 L19.2896132,6.43346396 C18.9362459,6.43346396 18.7325189,6.63607514 18.7325189,6.98673113 L18.7325189,20.1636139 C18.7325189,20.5281351 18.9362459,20.7168811 19.2896132,20.7168811 L19.2896132,20.7168811 Z M34.2928459,20.986582 C38.0717117,20.986582 40.4772229,19.003855 40.4772229,15.6453399 L40.4772229,6.98673113 C40.4772229,6.63607514 40.2870176,6.43346396 39.9201287,6.43346396 L38.0446683,6.43346396 C37.691301,6.43346396 37.4871233,6.63607514 37.4871233,6.98673113 L37.4871233,15.4972951 C37.4871233,17.425903 36.128192,18.302543 34.2928459,18.302543 C32.4714723,18.302543 31.0990193,17.425903 31.0990193,15.4972951 L31.0990193,6.98673113 C31.0990193,6.63607514 30.8952923,6.43346396 30.5419251,6.43346396 L28.6660139,6.43346396 C28.3126467,6.43346396 28.1089197,6.63607514 28.1089197,6.98673113 L28.1089197,15.6453399 C28.1089197,19.003855 30.5148816,20.986582 34.2928459,20.986582 L34.2928459,20.986582 Z M44.232651,20.7168811 L46.1491273,20.7168811 C46.5024945,20.7168811 46.7062215,20.5281351 46.7062215,20.1636139 L46.7062215,12.0037059 C46.7062215,9.92705316 47.8339317,8.80754813 49.5606534,8.80754813 C51.0692249,8.80754813 52.2789668,9.67077015 52.2789668,11.895915 L52.2789668,20.1636139 C52.2789668,20.5281351 52.4691721,20.7168811 52.836061,20.7168811 L54.7525373,20.7168811 C55.1194262,20.7168811 55.3100822,20.5281351 55.3100822,20.1636139 L55.3100822,12.0037059 C55.3100822,9.92705316 56.4652865,8.80754813 58.1775851,8.80754813 C59.6726349,8.80754813 60.8958984,9.67077015 60.8958984,11.895915 L60.8958984,20.1636139 C60.8958984,20.5281351 61.0865545,20.7168811 61.4534434,20.7168811 L63.3559472,20.7168811 C63.7232869,20.7168811 63.9134922,20.5281351 63.9134922,20.1636139 L63.9134922,10.9517379 C63.9134922,8.07895297 61.9289567,6.16376299 59.020438,6.16376299 C57.4027914,6.16376299 56.0844252,6.79798518 55.1469203,7.91704294 C54.9021775,8.24086301 54.6984504,8.21402709 54.4672293,7.87678906 C53.6653922,6.67632902 52.347026,6.16376299 50.7839169,6.16376299 C49.3429539,6.16376299 48.1471845,6.70316493 47.3043316,7.64734197 C46.9644861,8.02528114 46.7062215,7.95774408 46.7062215,7.45859601 L46.7062215,6.98673113 C46.7062215,6.63607514 46.5024945,6.43346396 46.1491273,6.43346396 L44.232651,6.43346396 C43.8792838,6.43346396 43.6755568,6.63607514 43.6755568,6.98673113 L43.6755568,20.1636139 C43.6755568,20.5281351 43.8792838,20.7168811 44.232651,20.7168811 L44.232651,20.7168811 Z M71.5519031,20.986582 C74.691643,20.986582 76.9479648,19.422048 76.9479648,16.495144 C76.9479648,13.6487477 74.7597022,12.8132561 72.761645,12.2063171 C71.0218523,11.6803331 69.3911347,11.3296771 69.3911347,10.1023812 C69.3911347,9.10408502 70.3015962,8.55126512 71.592919,8.55126512 C72.5033804,8.55126512 73.6180196,8.83438405 74.6371054,9.44132305 C74.9499075,9.63006901 75.2081721,9.57639717 75.4118991,9.29283098 L76.254752,8.06553501 C76.4720007,7.78241608 76.4179139,7.51271511 76.1051118,7.32396916 C74.8002673,6.56853808 73.2781741,6.16376299 71.7416577,6.16376299 C68.9417634,6.16376299 66.4961378,7.56638695 66.4961378,10.3855001 C66.4961378,13.190748 68.8471115,13.9193432 70.8997063,14.5531181 C72.5443963,15.0522661 73.9713868,15.443176 73.9713868,16.7241438 C73.9713868,17.870932 73.0063878,18.5047069 71.5654248,18.5047069 C70.2195645,18.5047069 68.779503,17.9250511 67.7054289,17.183038 C67.3930775,16.9674561 67.1208405,16.994292 66.9306352,17.3042469 L66.1017547,18.666617 C65.9115494,18.9636011 65.9521145,19.2333021 66.2649166,19.435466 C67.5832828,20.2852701 69.4452216,20.986582 71.5519031,20.986582 L71.5519031,20.986582 Z M84.4543137,20.7168811 L86.0715096,20.7168811 C86.4383985,20.7168811 86.6290546,20.5281351 86.6290546,20.1636139 L86.6290546,18.8553629 C86.6290546,18.491289 86.4383985,18.302543 86.0715096,18.302543 L85.0659455,18.302543 C83.9098398,18.302543 83.1084534,17.5743951 83.1084534,16.1851891 L83.1084534,9.29283098 C83.1084534,8.94217499 83.2986587,8.74001108 83.6655476,8.74001108 L86.098553,8.74001108 C86.4519202,8.74001108 86.656098,8.55126512 86.656098,8.18719117 L86.656098,6.98673113 C86.656098,6.63607514 86.4519202,6.43346396 86.098553,6.43346396 L83.6655476,6.43346396 C83.2986587,6.43346396 83.1084534,6.24471801 83.1084534,5.88064406 L83.1084534,3.03469501 C83.1084534,2.68403902 82.9182481,2.48187511 82.5513592,2.48187511 L80.6348829,2.48187511 C80.2675432,2.48187511 80.0777887,2.68403902 80.0777887,3.03469501 L80.0777887,5.88064406 C80.0777887,6.24471801 79.8875833,6.43346396 79.5202437,6.43346396 L78.2834584,6.43346396 C77.9300912,6.43346396 77.7263642,6.63607514 77.7263642,6.98673113 L77.7263642,8.18719117 C77.7263642,8.55126512 77.9300912,8.74001108 78.2834584,8.74001108 L79.5202437,8.74001108 C79.8875833,8.74001108 80.0777887,8.94217499 80.0777887,9.29283098 L80.0777887,16.5358451 C80.0777887,19.2467201 81.8175813,20.7168811 84.4543137,20.7168811 L84.4543137,20.7168811 Z M94.7984178,20.986582 C97.489237,20.986582 99.7320371,19.7592861 101.036882,17.776559 C101.213565,17.4795749 101.104941,17.2237391 100.751574,17.0618291 L99.3241324,16.4683081 C99.011781,16.319816 98.7670381,16.414189 98.5493387,16.6973079 C97.6659206,17.8440961 96.2934676,18.477871 94.7839947,18.477871 C92.4605151,18.477871 90.503023,16.8726359 90.1501065,14.579954 C90.0685255,14.21588 90.2992959,13.9998509 90.6661849,13.9998509 L101.580454,13.9998509 C101.919849,13.9998509 102.137548,13.784269 102.164592,13.447031 L102.164592,13.271703 C102.06994,9.17162208 98.8486191,6.15034503 94.7303586,6.15034503 C90.4218927,6.15034503 87.1591054,9.45474101 87.1591054,13.5682399 C87.1591054,17.695604 90.3673552,20.986582 94.7984178,20.986582 L94.7984178,20.986582 Z M90.9244494,11.9500341 C90.5305171,11.9500341 90.2992959,11.6937511 90.4624578,11.3162592 C91.1691923,9.63006901 92.7868389,8.53784716 94.7438803,8.53784716 C96.7004709,8.53784716 98.2910741,9.64348697 98.9572434,11.3162592 C99.1204053,11.707169 98.8891842,11.9500341 98.5087736,11.9500341 L90.9244494,11.9500341 Z M104.886962,20.7168811 L106.802987,20.7168811 C107.156805,20.7168811 107.360532,20.5281351 107.360532,20.1636139 L107.360532,13.3929119 C107.360532,10.4253067 109.073281,9.30580167 111.710014,9.18504004 C112.076903,9.17162208 112.267108,8.94217499 112.267108,8.61880218 L112.267108,6.8646277 C112.267108,6.50100102 112.063381,6.29883711 111.68297,6.33909099 C110.051802,6.51441898 108.746958,7.202313 107.890583,8.14649003 C107.537216,8.52353467 107.278951,8.42960896 107.278951,7.93090816 L107.278951,6.98673113 C107.278951,6.63607514 107.075224,6.43346396 106.721857,6.43346396 L104.886962,6.43346396 C104.533594,6.43346396 104.329867,6.63607514 104.329867,6.98673113 L104.329867,20.1636139 C104.329867,20.5281351 104.533594,20.7168811 104.886962,20.7168811 L104.886962,20.7168811 Z M114.097045,20.986582 C115.130104,20.986582 116,20.1501959 116,19.1116459 C116,18.1003791 115.130104,17.2237391 114.097045,17.2237391 C113.077509,17.2237391 112.207613,18.1003791 112.207613,19.1116459 C112.207613,20.1501959 113.077509,20.986582 114.097045,20.986582 L114.097045,20.986582 Z" id="Fill-1" fill="#222222" mask="url(#mask-2)"></path>
                </g>
                <g id="Icon">
                    <polygon id="Shadow" fill="url(#linearGradient-3)" fill-rule="nonzero" style="mix-blend-mode: multiply;" transform="translate(54.457378, 58.944186) rotate(-315.000000) translate(-54.457378, -58.944186) " points="8.15483395 30.2547077 101.234796 30.1496398 101.169854 87.6825556 7.67995889 87.7387326"></polygon>
                    <g id="Fillin" transform="translate(2.000000, 1.000000)">
                        <mask id="mask-5" fill="white">
                            <use xlink:href="#path-4"></use>
                        </mask>
                        <g id="Clip-2"></g>
                        <path d="M24.3074897,0 L1.84646173,0 C1.84646173,0 0,0 0,1.87200723 L0,42.1267881 C0,42.1267881 0,44 1.84646173,44 L13.5440848,44 C13.5440848,44 15.3905465,44 16.5688611,42.5580485 L20.954282,37.19741 C22.1741701,38.6718868 23.6304339,40.4312604 25.3973119,42.5658786 C25.3973119,42.5658786 26.5845351,44 28.429809,44 C30.2768647,44 46,37.3419666 46,21.9996988 C46,9.84972143 36.2884072,0 24.3074897,0" id="Fill-1" fill="#FFFFFF" mask="url(#mask-5)"></path>
                    </g>
                    <g>
                        <mask id="mask-7" fill="white">
                            <use xlink:href="#path-6"></use>
                        </mask>
                        <g id="Clip-2"></g>
                        <path d="M22.985,15.9819914 C18.7802381,15.9819914 15.3594048,19.3718056 15.3594048,23.5390297 C15.3594048,25.1982514 15.8915476,26.772536 16.8980952,28.0920095 C18.1861905,29.7795436 18.5070238,30.1995101 22.9278571,35.4284474 L29.0963095,28.0595683 C30.0867857,26.7471729 30.6105952,25.1852749 30.6105952,23.5390297 C30.6105952,19.3718056 27.1897619,15.9819914 22.985,15.9819914 L22.985,15.9819914 Z M3.86892857,43.1659769 L15.5088095,43.1659769 C15.4903571,43.1659769 16.4838095,43.1270474 17.0510714,42.4481408 L20.4165476,38.427787 C15.499881,32.6149075 15.1921429,32.2126362 13.812381,30.4047747 C12.2933333,28.4134727 11.4903571,26.039954 11.4903571,23.5390297 C11.4903571,17.2578167 16.6469048,12.1480273 22.985,12.1480273 C29.3230952,12.1480273 34.4796429,17.2578167 34.4796429,23.5390297 C34.4796429,26.0405438 33.6760714,28.4140625 32.157619,30.4047747 L32.1034524,30.4726064 L25.4546429,38.4142207 C26.4463095,39.5850544 27.5766667,40.9192739 28.870119,42.4457815 L28.870119,42.4457815 C28.8713095,42.4457815 29.5135714,43.1376645 30.3754762,43.165387 C32.0719048,42.8964197 46.1034524,37.0245562 46.1034524,23.5390297 C46.1034524,12.7166336 37.2183333,3.91149261 26.2963095,3.91149261 L3.86892857,3.91149261 L3.86892857,43.1659769 Z M30.4284524,46.999941 C27.7540476,46.999941 26.0879762,45.1248376 25.9070238,44.9113153 C24.807619,43.6130761 23.8242857,42.4528595 22.9445238,41.4135603 L20.0296429,44.8959795 C18.3183333,46.9403671 15.7915476,46.999941 15.5088095,46.999941 L3.785,46.999941 C1.32666667,46.999941 -0.000119047619,45.0676231 -0.000119047619,43.2497342 L-0.000119047619,3.82832508 C-0.000119047619,1.39228325 1.94988095,0.0775284661 3.785,0.0775284661 L26.2963095,0.0775284661 C39.3516667,0.0775284661 49.9725,10.602055 49.9725,23.5390297 C49.9725,39.9413181 33.1058333,46.999941 30.4284524,46.999941 L30.4284524,46.999941 Z" id="Fill-1" fill="#222222" mask="url(#mask-7)"></path>
                    </g>
                    <path d="M23.0002895,27 C24.6570794,27 26,25.657209 26,24 C26,22.34337 24.6570794,21 23.0002895,21 C21.3434997,21 20,22.34337 20,24 C20,25.657209 21.3434997,27 23.0002895,27" id="Circle" fill="#FD6585"></path>
                </g>
            </g>
        </g>
    </g>
</svg>